External Loads File
version=1
nRows=38
nColumns=13
Range=5.000000e-03-10 seconds
endheader
time 	forceRightX 	forceRightY 	forceRightZ 	pointRightX 	pointRightY 	pointRightZ 	forceLeftX 	forceLeftY 	forceLeftZ 	pointLeftX 	pointLeftY 	pointLeftZ 		
0.005000 53.353333 223.864394 -0.000000 0.138434 0.260462 -0.124453 -123.054574 145.973397 -0.000000 0.445259 0.388715 -0.367383
0.010000 52.890864 222.955031 -0.000000 0.138406 0.260468 -0.124456 -122.250871 145.866098 -0.000000 0.445278 0.388677 -0.367385
0.015000 52.556061 222.105130 -0.000000 0.138401 0.260485 -0.124455 -121.511919 145.748564 -0.000000 0.445294 0.388617 -0.367376
0.020000 52.375633 221.377516 -0.000000 0.138413 0.260504 -0.124429 -120.901107 145.603782 -0.000000 0.445274 0.388593 -0.367397
0.025000 52.332228 220.798464 -0.000000 0.138384 0.260750 -0.124334 -120.457097 145.426273 -0.000000 0.445039 0.388813 -0.367635
0.030000 52.524066 220.328740 -0.000000 0.138383 0.260794 -0.124279 -120.093755 145.300813 -0.000000 0.445148 0.388804 -0.367534
0.035000 52.722978 219.990244 -0.000000 0.138400 0.260817 -0.124245 -119.908689 145.146754 -0.000000 0.445163 0.388818 -0.367524
0.040000 52.925874 219.750898 -0.000000 0.138414 0.260825 -0.124248 -119.838736 145.010033 -0.000000 0.445162 0.388823 -0.367516
0.045000 53.123447 219.584372 -0.000000 0.138389 0.260824 -0.124254 -119.827610 144.922932 -0.000000 0.445151 0.388816 -0.367526
0.050000 53.266336 219.475248 -0.000000 0.138363 0.260812 -0.124308 -119.861378 144.871730 -0.000000 0.445154 0.388855 -0.367530
0.055000 53.393415 219.387067 -0.000000 0.138355 0.260802 -0.124337 -119.888321 144.871888 -0.000000 0.445146 0.388864 -0.367542
0.060000 53.481639 219.308897 -0.000000 0.138334 0.260782 -0.124373 -119.915629 144.893316 -0.000000 0.445117 0.388873 -0.367544
0.065000 53.506481 219.247265 -0.000000 0.138324 0.260753 -0.124411 -119.966624 144.891452 -0.000000 0.445104 0.388946 -0.367542
0.070000 53.527325 219.198057 -0.000000 0.138349 0.260718 -0.124405 -120.015932 144.865388 -0.000000 0.445090 0.389007 -0.367540
0.075000 53.573609 219.162048 -0.000000 0.138375 0.260691 -0.124399 -120.052606 144.819225 -0.000000 0.445079 0.389056 -0.367518
0.080000 53.603386 219.142337 -0.000000 0.138446 0.260658 -0.124342 -120.098353 144.748591 -0.000000 0.445080 0.389108 -0.367515
0.085000 53.620621 219.115916 -0.000000 0.138513 0.260636 -0.124276 -120.130500 144.690442 -0.000000 0.445080 0.389131 -0.367512
0.090000 53.574101 219.081490 -0.000000 0.138570 0.260610 -0.124231 -120.167469 144.639599 -0.000000 0.445073 0.389158 -0.367507
0.095000 53.501699 219.041153 -0.000000 0.138618 0.260592 -0.124203 -120.189990 144.609812 -0.000000 0.445111 0.389187 -0.367437
0.100000 53.426773 219.011598 -0.000000 0.138627 0.260560 -0.124211 -120.197924 144.588242 -0.000000 0.445111 0.389200 -0.367446
0.105000 53.385798 218.996548 -0.000000 0.138605 0.260560 -0.124265 -120.178301 144.572969 -0.000000 0.445104 0.389226 -0.367455
0.110000 53.335235 219.005970 -0.000000 0.138556 0.260472 -0.124325 -120.169094 144.530220 -0.000000 0.445089 0.389223 -0.367463
0.115000 53.350314 219.011247 -0.000000 0.138516 0.260473 -0.124402 -120.121337 144.502131 -0.000000 0.445111 0.389238 -0.367475
0.120000 53.406034 219.004659 -0.000000 0.138489 0.260530 -0.124421 -120.036061 144.478941 -0.000000 0.445108 0.389235 -0.367476
0.125000 53.393070 219.004070 -0.000000 0.138504 0.260489 -0.124446 -119.961911 144.399130 -0.000000 0.445128 0.389241 -0.367485
0.130000 53.420841 218.977915 -0.000000 0.138502 0.260486 -0.124392 -119.804443 144.320766 -0.000000 0.445148 0.389224 -0.367486
0.135000 53.425862 218.934373 -0.000000 0.138552 0.260503 -0.124339 -119.597806 144.215246 -0.000000 0.445185 0.389227 -0.367469
0.140000 53.428581 218.861023 -0.000000 0.138611 0.260563 -0.124251 -119.350283 144.105731 -0.000000 0.445185 0.389217 -0.367512
0.145000 53.389475 218.769456 -0.000000 0.138658 0.260566 -0.124197 -119.133300 143.981176 -0.000000 0.445213 0.389196 -0.367519
0.150000 53.367472 218.665710 -0.000000 0.138678 0.260594 -0.124174 -118.959108 143.870133 -0.000000 0.445240 0.389179 -0.367509
0.155000 53.383351 218.580644 -0.000000 0.138635 0.260609 -0.124192 -118.857198 143.761067 -0.000000 0.445269 0.389177 -0.367512
0.160000 53.478610 218.534894 -0.000000 0.138590 0.260626 -0.124249 -118.821742 143.654436 -0.000000 0.445267 0.389155 -0.367521
0.165000 53.658434 218.533609 -0.000000 0.138515 0.260648 -0.124314 -118.838272 143.556011 -0.000000 0.445269 0.389124 -0.367544
0.170000 53.845827 218.576716 -0.000000 0.138466 0.260668 -0.124386 -118.921140 143.453750 -0.000000 0.445271 0.389108 -0.367554
0.175000 54.007111 218.634480 -0.000000 0.138439 0.260679 -0.124409 -119.048526 143.371044 -0.000000 0.445283 0.389074 -0.367556
0.180000 54.083236 218.671598 -0.000000 0.138435 0.260710 -0.124415 -119.217696 143.314426 -0.000000 0.445283 0.389050 -0.367557
0.185000 54.050925 218.649393 -0.000000 0.138478 0.260738 -0.124362 -119.411294 143.298933 -0.000000 0.445291 0.388985 -0.367557
0.190000 53.833332 218.570598 -0.000000 0.138546 0.260735 -0.124297 -119.662791 143.297365 -0.000000 0.445306 0.388966 -0.367550
